<mxfile host="app.diagrams.net" modified="2024-01-12T15:07:17.137Z" agent="Mozilla/5.0 (Macintosh; Intel Mac OS X 10_15_7) AppleWebKit/537.36 (KHTML, like Gecko) Chrome/120.0.0.0 Safari/537.36" etag="apB27BFFdDN9klpgf4WU" version="22.1.17" type="github">
  <diagram name="Page-1" id="BdnaathCdS6v5_qcSxWo">
    <mxGraphModel dx="2533" dy="2249" grid="1" gridSize="10" guides="1" tooltips="1" connect="1" arrows="1" fold="1" page="1" pageScale="1" pageWidth="827" pageHeight="1169" math="0" shadow="0">
      <root>
        <mxCell id="0" />
        <mxCell id="1" parent="0" />
        <mxCell id="ux4w96LhOhkR_cCdYGw1-1" value="Player" style="shape=umlActor;verticalLabelPosition=bottom;verticalAlign=top;html=1;outlineConnect=0;" vertex="1" parent="1">
          <mxGeometry x="-140" y="360" width="30" height="60" as="geometry" />
        </mxCell>
        <mxCell id="ux4w96LhOhkR_cCdYGw1-5" value="CREER UNE PARTIE" style="ellipse;whiteSpace=wrap;html=1;" vertex="1" parent="1">
          <mxGeometry x="385" y="290" width="100" height="40" as="geometry" />
        </mxCell>
        <mxCell id="ux4w96LhOhkR_cCdYGw1-6" value="COMMENCER" style="ellipse;whiteSpace=wrap;html=1;" vertex="1" parent="1">
          <mxGeometry x="240" y="340" width="100" height="40" as="geometry" />
        </mxCell>
        <mxCell id="ux4w96LhOhkR_cCdYGw1-7" value="CHARGER UNE PARTIE" style="ellipse;whiteSpace=wrap;html=1;" vertex="1" parent="1">
          <mxGeometry x="414" y="370" width="110" height="50" as="geometry" />
        </mxCell>
        <mxCell id="ux4w96LhOhkR_cCdYGw1-8" value="" style="endArrow=none;startArrow=none;endFill=0;startFill=0;endSize=8;html=1;verticalAlign=bottom;labelBackgroundColor=none;strokeWidth=3;rounded=0;" edge="1" parent="1" source="ux4w96LhOhkR_cCdYGw1-1" target="ux4w96LhOhkR_cCdYGw1-6">
          <mxGeometry width="160" relative="1" as="geometry">
            <mxPoint x="210" y="320" as="sourcePoint" />
            <mxPoint x="370" y="320" as="targetPoint" />
          </mxGeometry>
        </mxCell>
        <mxCell id="ux4w96LhOhkR_cCdYGw1-9" value="" style="endArrow=block;html=1;rounded=0;align=center;verticalAlign=bottom;endFill=0;labelBackgroundColor=none;endSize=8;" edge="1" parent="1" source="ux4w96LhOhkR_cCdYGw1-5" target="ux4w96LhOhkR_cCdYGw1-6">
          <mxGeometry relative="1" as="geometry">
            <mxPoint x="210" y="320" as="sourcePoint" />
            <mxPoint x="370" y="320" as="targetPoint" />
          </mxGeometry>
        </mxCell>
        <mxCell id="ux4w96LhOhkR_cCdYGw1-10" value="" style="resizable=0;html=1;align=center;verticalAlign=top;labelBackgroundColor=none;" connectable="0" vertex="1" parent="ux4w96LhOhkR_cCdYGw1-9">
          <mxGeometry relative="1" as="geometry" />
        </mxCell>
        <mxCell id="ux4w96LhOhkR_cCdYGw1-11" value="" style="endArrow=block;html=1;rounded=0;align=center;verticalAlign=bottom;endFill=0;labelBackgroundColor=none;endSize=8;" edge="1" parent="1" source="ux4w96LhOhkR_cCdYGw1-7" target="ux4w96LhOhkR_cCdYGw1-6">
          <mxGeometry relative="1" as="geometry">
            <mxPoint x="490" y="334" as="sourcePoint" />
            <mxPoint x="414" y="380" as="targetPoint" />
          </mxGeometry>
        </mxCell>
        <mxCell id="ux4w96LhOhkR_cCdYGw1-12" value="" style="resizable=0;html=1;align=center;verticalAlign=top;labelBackgroundColor=none;" connectable="0" vertex="1" parent="ux4w96LhOhkR_cCdYGw1-11">
          <mxGeometry relative="1" as="geometry" />
        </mxCell>
        <mxCell id="ux4w96LhOhkR_cCdYGw1-13" value="SAUVEGARDER PARTIE" style="ellipse;whiteSpace=wrap;html=1;" vertex="1" parent="1">
          <mxGeometry x="225" y="90" width="130" height="50" as="geometry" />
        </mxCell>
        <mxCell id="ux4w96LhOhkR_cCdYGw1-14" value="" style="endArrow=none;startArrow=none;endFill=0;startFill=0;endSize=8;html=1;verticalAlign=bottom;labelBackgroundColor=none;strokeWidth=3;rounded=0;" edge="1" parent="1" source="ux4w96LhOhkR_cCdYGw1-1" target="ux4w96LhOhkR_cCdYGw1-13">
          <mxGeometry width="160" relative="1" as="geometry">
            <mxPoint x="140" y="310" as="sourcePoint" />
            <mxPoint x="260" y="310" as="targetPoint" />
          </mxGeometry>
        </mxCell>
        <mxCell id="ux4w96LhOhkR_cCdYGw1-15" value="SE CONNECTER" style="ellipse;whiteSpace=wrap;html=1;" vertex="1" parent="1">
          <mxGeometry x="200" y="-50" width="100" height="40" as="geometry" />
        </mxCell>
        <mxCell id="ux4w96LhOhkR_cCdYGw1-16" value="&amp;lt;&amp;lt;include&amp;gt;&amp;gt;" style="html=1;verticalAlign=bottom;labelBackgroundColor=none;endArrow=open;endFill=0;dashed=1;rounded=0;" edge="1" parent="1" source="ux4w96LhOhkR_cCdYGw1-13" target="ux4w96LhOhkR_cCdYGw1-15">
          <mxGeometry width="160" relative="1" as="geometry">
            <mxPoint x="210" y="320" as="sourcePoint" />
            <mxPoint x="370" y="320" as="targetPoint" />
          </mxGeometry>
        </mxCell>
        <mxCell id="ux4w96LhOhkR_cCdYGw1-17" value="S&#39;ENREGISTRER" style="ellipse;whiteSpace=wrap;html=1;" vertex="1" parent="1">
          <mxGeometry x="400" y="220" width="130" height="50" as="geometry" />
        </mxCell>
        <mxCell id="ux4w96LhOhkR_cCdYGw1-18" value="" style="endArrow=none;startArrow=none;endFill=0;startFill=0;endSize=8;html=1;verticalAlign=bottom;labelBackgroundColor=none;strokeWidth=3;rounded=0;" edge="1" parent="1" source="ux4w96LhOhkR_cCdYGw1-1" target="ux4w96LhOhkR_cCdYGw1-17">
          <mxGeometry width="160" relative="1" as="geometry">
            <mxPoint x="130" y="329.13" as="sourcePoint" />
            <mxPoint x="250" y="329.13" as="targetPoint" />
          </mxGeometry>
        </mxCell>
        <mxCell id="ux4w96LhOhkR_cCdYGw1-19" value="" style="endArrow=none;startArrow=none;endFill=0;startFill=0;endSize=8;html=1;verticalAlign=bottom;labelBackgroundColor=none;strokeWidth=3;rounded=0;" edge="1" parent="1" source="ux4w96LhOhkR_cCdYGw1-1" target="ux4w96LhOhkR_cCdYGw1-15">
          <mxGeometry width="160" relative="1" as="geometry">
            <mxPoint x="155" y="307" as="sourcePoint" />
            <mxPoint x="275" y="313" as="targetPoint" />
          </mxGeometry>
        </mxCell>
        <mxCell id="ux4w96LhOhkR_cCdYGw1-20" value="SUPPRIMER UNE SAUVEGARDE" style="ellipse;whiteSpace=wrap;html=1;" vertex="1" parent="1">
          <mxGeometry x="600" y="370" width="130" height="50" as="geometry" />
        </mxCell>
        <mxCell id="ux4w96LhOhkR_cCdYGw1-21" value="&amp;lt;&amp;lt;extend&amp;gt;&amp;gt;" style="html=1;verticalAlign=bottom;labelBackgroundColor=none;endArrow=open;endFill=0;dashed=1;rounded=0;" edge="1" parent="1" source="ux4w96LhOhkR_cCdYGw1-20" target="ux4w96LhOhkR_cCdYGw1-7">
          <mxGeometry width="160" relative="1" as="geometry">
            <mxPoint x="550" y="320" as="sourcePoint" />
            <mxPoint x="710" y="320" as="targetPoint" />
          </mxGeometry>
        </mxCell>
        <mxCell id="ux4w96LhOhkR_cCdYGw1-22" value="JOUER" style="ellipse;whiteSpace=wrap;html=1;" vertex="1" parent="1">
          <mxGeometry x="240" y="450" width="100" height="40" as="geometry" />
        </mxCell>
        <mxCell id="ux4w96LhOhkR_cCdYGw1-23" value="" style="endArrow=none;startArrow=none;endFill=0;startFill=0;endSize=8;html=1;verticalAlign=bottom;labelBackgroundColor=none;strokeWidth=3;rounded=0;" edge="1" parent="1" source="ux4w96LhOhkR_cCdYGw1-1" target="ux4w96LhOhkR_cCdYGw1-22">
          <mxGeometry width="160" relative="1" as="geometry">
            <mxPoint x="160" y="410" as="sourcePoint" />
            <mxPoint x="280" y="416" as="targetPoint" />
          </mxGeometry>
        </mxCell>
        <mxCell id="ux4w96LhOhkR_cCdYGw1-24" value="LANCER DÃ‰" style="ellipse;whiteSpace=wrap;html=1;" vertex="1" parent="1">
          <mxGeometry x="180" y="530" width="100" height="40" as="geometry" />
        </mxCell>
        <mxCell id="ux4w96LhOhkR_cCdYGw1-25" value="" style="endArrow=none;startArrow=none;endFill=0;startFill=0;endSize=8;html=1;verticalAlign=bottom;labelBackgroundColor=none;strokeWidth=3;rounded=0;" edge="1" parent="1" source="ux4w96LhOhkR_cCdYGw1-22" target="ux4w96LhOhkR_cCdYGw1-24">
          <mxGeometry width="160" relative="1" as="geometry">
            <mxPoint x="180" y="470" as="sourcePoint" />
            <mxPoint x="324" y="563" as="targetPoint" />
          </mxGeometry>
        </mxCell>
        <mxCell id="ux4w96LhOhkR_cCdYGw1-27" value="ACHETER TERRAIN" style="ellipse;whiteSpace=wrap;html=1;" vertex="1" parent="1">
          <mxGeometry x="325" y="530" width="100" height="40" as="geometry" />
        </mxCell>
        <mxCell id="ux4w96LhOhkR_cCdYGw1-28" value="" style="endArrow=none;startArrow=none;endFill=0;startFill=0;endSize=8;html=1;verticalAlign=bottom;labelBackgroundColor=none;strokeWidth=3;rounded=0;" edge="1" parent="1" source="ux4w96LhOhkR_cCdYGw1-22" target="ux4w96LhOhkR_cCdYGw1-27">
          <mxGeometry width="160" relative="1" as="geometry">
            <mxPoint x="460" y="500" as="sourcePoint" />
            <mxPoint x="430" y="560" as="targetPoint" />
          </mxGeometry>
        </mxCell>
        <mxCell id="ux4w96LhOhkR_cCdYGw1-29" value="TERMINER SON TOUR" style="ellipse;whiteSpace=wrap;html=1;" vertex="1" parent="1">
          <mxGeometry x="414" y="445" width="110" height="50" as="geometry" />
        </mxCell>
        <mxCell id="ux4w96LhOhkR_cCdYGw1-30" value="" style="endArrow=none;startArrow=none;endFill=0;startFill=0;endSize=8;html=1;verticalAlign=bottom;labelBackgroundColor=none;strokeWidth=3;rounded=0;" edge="1" parent="1" source="ux4w96LhOhkR_cCdYGw1-22" target="ux4w96LhOhkR_cCdYGw1-29">
          <mxGeometry width="160" relative="1" as="geometry">
            <mxPoint x="400" y="470" as="sourcePoint" />
            <mxPoint x="430" y="532" as="targetPoint" />
          </mxGeometry>
        </mxCell>
        <mxCell id="ux4w96LhOhkR_cCdYGw1-31" value="ENCHERIRE" style="ellipse;whiteSpace=wrap;html=1;" vertex="1" parent="1">
          <mxGeometry x="414" y="580" width="110" height="50" as="geometry" />
        </mxCell>
        <mxCell id="ux4w96LhOhkR_cCdYGw1-33" value="&amp;lt;&amp;lt;extend&amp;gt;&amp;gt;" style="html=1;verticalAlign=bottom;labelBackgroundColor=none;endArrow=open;endFill=0;dashed=1;rounded=0;" edge="1" parent="1" source="ux4w96LhOhkR_cCdYGw1-31" target="ux4w96LhOhkR_cCdYGw1-29">
          <mxGeometry x="-0.4286" width="160" relative="1" as="geometry">
            <mxPoint x="625" y="540" as="sourcePoint" />
            <mxPoint x="530" y="540" as="targetPoint" />
            <mxPoint as="offset" />
          </mxGeometry>
        </mxCell>
        <mxCell id="ux4w96LhOhkR_cCdYGw1-34" value="PLACER UN ENCHERE" style="ellipse;whiteSpace=wrap;html=1;" vertex="1" parent="1">
          <mxGeometry x="590" y="630" width="110" height="50" as="geometry" />
        </mxCell>
        <mxCell id="ux4w96LhOhkR_cCdYGw1-35" value="" style="endArrow=block;html=1;rounded=0;align=center;verticalAlign=bottom;endFill=0;labelBackgroundColor=none;endSize=8;" edge="1" parent="1" source="ux4w96LhOhkR_cCdYGw1-34" target="ux4w96LhOhkR_cCdYGw1-31">
          <mxGeometry relative="1" as="geometry">
            <mxPoint x="495" y="675" as="sourcePoint" />
            <mxPoint x="425" y="650" as="targetPoint" />
          </mxGeometry>
        </mxCell>
        <mxCell id="ux4w96LhOhkR_cCdYGw1-36" value="" style="resizable=0;html=1;align=center;verticalAlign=top;labelBackgroundColor=none;" connectable="0" vertex="1" parent="ux4w96LhOhkR_cCdYGw1-35">
          <mxGeometry relative="1" as="geometry" />
        </mxCell>
        <mxCell id="ux4w96LhOhkR_cCdYGw1-37" value="PASSER LES ENCHÃˆRE" style="ellipse;whiteSpace=wrap;html=1;" vertex="1" parent="1">
          <mxGeometry x="414" y="700" width="110" height="50" as="geometry" />
        </mxCell>
        <mxCell id="ux4w96LhOhkR_cCdYGw1-38" value="" style="endArrow=block;html=1;rounded=0;align=center;verticalAlign=bottom;endFill=0;labelBackgroundColor=none;endSize=8;entryX=0.5;entryY=1;entryDx=0;entryDy=0;" edge="1" parent="1" source="ux4w96LhOhkR_cCdYGw1-37" target="ux4w96LhOhkR_cCdYGw1-31">
          <mxGeometry relative="1" as="geometry">
            <mxPoint x="472" y="700" as="sourcePoint" />
            <mxPoint x="430" y="656" as="targetPoint" />
          </mxGeometry>
        </mxCell>
        <mxCell id="ux4w96LhOhkR_cCdYGw1-39" value="" style="resizable=0;html=1;align=center;verticalAlign=top;labelBackgroundColor=none;" connectable="0" vertex="1" parent="ux4w96LhOhkR_cCdYGw1-38">
          <mxGeometry relative="1" as="geometry" />
        </mxCell>
        <mxCell id="ux4w96LhOhkR_cCdYGw1-42" value="ARRETER LES ENCHERE" style="ellipse;whiteSpace=wrap;html=1;" vertex="1" parent="1">
          <mxGeometry x="590" y="530" width="110" height="50" as="geometry" />
        </mxCell>
        <mxCell id="ux4w96LhOhkR_cCdYGw1-43" value="" style="endArrow=block;html=1;rounded=0;align=center;verticalAlign=bottom;endFill=0;labelBackgroundColor=none;endSize=8;" edge="1" parent="1" source="ux4w96LhOhkR_cCdYGw1-42" target="ux4w96LhOhkR_cCdYGw1-31">
          <mxGeometry relative="1" as="geometry">
            <mxPoint x="642" y="669" as="sourcePoint" />
            <mxPoint x="600" y="625" as="targetPoint" />
          </mxGeometry>
        </mxCell>
        <mxCell id="ux4w96LhOhkR_cCdYGw1-44" value="" style="resizable=0;html=1;align=center;verticalAlign=top;labelBackgroundColor=none;" connectable="0" vertex="1" parent="ux4w96LhOhkR_cCdYGw1-43">
          <mxGeometry relative="1" as="geometry" />
        </mxCell>
        <mxCell id="ux4w96LhOhkR_cCdYGw1-45" value="ECHANGER DES TERRAINS" style="ellipse;whiteSpace=wrap;html=1;" vertex="1" parent="1">
          <mxGeometry x="235" y="610" width="110" height="50" as="geometry" />
        </mxCell>
        <mxCell id="ux4w96LhOhkR_cCdYGw1-46" value="" style="endArrow=none;startArrow=none;endFill=0;startFill=0;endSize=8;html=1;verticalAlign=bottom;labelBackgroundColor=none;strokeWidth=3;rounded=0;" edge="1" parent="1" source="ux4w96LhOhkR_cCdYGw1-22" target="ux4w96LhOhkR_cCdYGw1-45">
          <mxGeometry width="160" relative="1" as="geometry">
            <mxPoint x="304" y="580" as="sourcePoint" />
            <mxPoint x="350" y="624" as="targetPoint" />
          </mxGeometry>
        </mxCell>
        <mxCell id="ux4w96LhOhkR_cCdYGw1-47" value="" style="endArrow=none;startArrow=none;endFill=0;startFill=0;endSize=8;html=1;verticalAlign=bottom;labelBackgroundColor=none;strokeWidth=3;rounded=0;" edge="1" parent="1" source="ux4w96LhOhkR_cCdYGw1-1" target="ux4w96LhOhkR_cCdYGw1-48">
          <mxGeometry width="160" relative="1" as="geometry">
            <mxPoint x="160" y="270" as="sourcePoint" />
            <mxPoint x="453" y="184" as="targetPoint" />
          </mxGeometry>
        </mxCell>
        <mxCell id="ux4w96LhOhkR_cCdYGw1-48" value="GERER TERRAIN" style="ellipse;whiteSpace=wrap;html=1;" vertex="1" parent="1">
          <mxGeometry x="394" y="110" width="130" height="50" as="geometry" />
        </mxCell>
        <mxCell id="ux4w96LhOhkR_cCdYGw1-49" value="HYPOTHEQUER UN&amp;nbsp; TERRAIN" style="ellipse;whiteSpace=wrap;html=1;" vertex="1" parent="1">
          <mxGeometry x="394" y="10" width="130" height="50" as="geometry" />
        </mxCell>
        <mxCell id="ux4w96LhOhkR_cCdYGw1-50" value="" style="endArrow=block;html=1;rounded=0;align=center;verticalAlign=bottom;endFill=0;labelBackgroundColor=none;endSize=8;" edge="1" parent="1" source="ux4w96LhOhkR_cCdYGw1-49" target="ux4w96LhOhkR_cCdYGw1-48">
          <mxGeometry relative="1" as="geometry">
            <mxPoint x="679.5" y="50" as="sourcePoint" />
            <mxPoint x="610.5" y="74" as="targetPoint" />
          </mxGeometry>
        </mxCell>
        <mxCell id="ux4w96LhOhkR_cCdYGw1-51" value="" style="resizable=0;html=1;align=center;verticalAlign=top;labelBackgroundColor=none;" connectable="0" vertex="1" parent="ux4w96LhOhkR_cCdYGw1-50">
          <mxGeometry relative="1" as="geometry" />
        </mxCell>
        <mxCell id="ux4w96LhOhkR_cCdYGw1-52" value="ACHETER DES MAISONS" style="ellipse;whiteSpace=wrap;html=1;" vertex="1" parent="1">
          <mxGeometry x="580" y="110" width="130" height="50" as="geometry" />
        </mxCell>
        <mxCell id="ux4w96LhOhkR_cCdYGw1-53" value="" style="endArrow=block;html=1;rounded=0;align=center;verticalAlign=bottom;endFill=0;labelBackgroundColor=none;endSize=8;" edge="1" parent="1" source="ux4w96LhOhkR_cCdYGw1-52" target="ux4w96LhOhkR_cCdYGw1-48">
          <mxGeometry relative="1" as="geometry">
            <mxPoint x="590" y="60" as="sourcePoint" />
            <mxPoint x="590" y="110" as="targetPoint" />
          </mxGeometry>
        </mxCell>
        <mxCell id="ux4w96LhOhkR_cCdYGw1-54" value="" style="resizable=0;html=1;align=center;verticalAlign=top;labelBackgroundColor=none;" connectable="0" vertex="1" parent="ux4w96LhOhkR_cCdYGw1-53">
          <mxGeometry relative="1" as="geometry" />
        </mxCell>
        <mxCell id="ux4w96LhOhkR_cCdYGw1-55" value="QUITTER" style="ellipse;whiteSpace=wrap;html=1;" vertex="1" parent="1">
          <mxGeometry x="225" y="820" width="100" height="40" as="geometry" />
        </mxCell>
        <mxCell id="ux4w96LhOhkR_cCdYGw1-56" value="" style="endArrow=none;startArrow=none;endFill=0;startFill=0;endSize=8;html=1;verticalAlign=bottom;labelBackgroundColor=none;strokeWidth=3;rounded=0;" edge="1" parent="1" source="ux4w96LhOhkR_cCdYGw1-1" target="ux4w96LhOhkR_cCdYGw1-55">
          <mxGeometry width="160" relative="1" as="geometry">
            <mxPoint x="40" y="558.5" as="sourcePoint" />
            <mxPoint x="184" y="651.5" as="targetPoint" />
            <Array as="points">
              <mxPoint x="105" y="750" />
            </Array>
          </mxGeometry>
        </mxCell>
        <mxCell id="ux4w96LhOhkR_cCdYGw1-57" value="SAUVEGARDER&lt;br&gt;PARTIE" style="ellipse;whiteSpace=wrap;html=1;" vertex="1" parent="1">
          <mxGeometry x="260" y="697.5" width="105" height="55" as="geometry" />
        </mxCell>
        <mxCell id="ux4w96LhOhkR_cCdYGw1-58" value="" style="endArrow=none;startArrow=none;endFill=0;startFill=0;endSize=8;html=1;verticalAlign=bottom;labelBackgroundColor=none;strokeWidth=3;rounded=0;" edge="1" parent="1" source="ux4w96LhOhkR_cCdYGw1-1" target="ux4w96LhOhkR_cCdYGw1-57">
          <mxGeometry width="160" relative="1" as="geometry">
            <mxPoint x="115" y="390" as="sourcePoint" />
            <mxPoint x="245" y="798" as="targetPoint" />
            <Array as="points">
              <mxPoint x="190" y="660" />
            </Array>
          </mxGeometry>
        </mxCell>
        <mxCell id="ux4w96LhOhkR_cCdYGw1-60" value="&amp;lt;&amp;lt;extend&amp;gt;&amp;gt;" style="html=1;verticalAlign=bottom;labelBackgroundColor=none;endArrow=open;endFill=0;dashed=1;rounded=0;" edge="1" parent="1" source="ux4w96LhOhkR_cCdYGw1-57" target="ux4w96LhOhkR_cCdYGw1-55">
          <mxGeometry x="-0.4286" width="160" relative="1" as="geometry">
            <mxPoint x="355" y="860" as="sourcePoint" />
            <mxPoint x="355" y="775" as="targetPoint" />
            <mxPoint as="offset" />
          </mxGeometry>
        </mxCell>
      </root>
    </mxGraphModel>
  </diagram>
</mxfile>
